{"title":"Sultan {2016} 720p DVDScr x264 AC3 5.1 {Team DUS} - jnmjy","uid":15310440,"size":2352181644,"categoryP":"video","categoryS":"movies","magnet":"?xt=urn:btih:74c51979b9e702e97ea3b93833db835eb2e4a033&amp;dn=Sultan+%7B2016%7D+720p+DVDScr+x264+AC3+5.1+%7BTeam+DUS%7D+-+jnmjy&amp;tr=udp%3A%2F%2Ftracker.leechers-paradise.org%3A6969&amp;tr=udp%3A%2F%2Fzer0day.ch%3A1337&amp;tr=udp%3A%2F%2Fopen.demonii.com%3A1337&amp;tr=udp%3A%2F%2Ftracker.coppersurfer.tk%3A6969&amp;tr=udp%3A%2F%2Fexodus.desync.com%3A6969","seeders":6,"leechers":0,"uploader":"makintos13","files":1,"time":1468575997,"description":"Sultan {2016} 720p DVDScr x264 AC3 5.1 {Team DUS} - jnmjy\r\n \nhttps://imgmak.com/TWS\r\n \nhttps://imgmak.com/TWZ\r\n \nhttps://imgmak.com/TWc\r\n \nhttps://imgmak.com/TWn\r\n \nhttps://imgmak.com/TWr\r\n \nhttps://imgmak.com/TWB\r\n\r\n\r\nSource: Junaid (Many thanks!)\r\n\r\nGeneral\r\nFormat                                   : Matroska\r\nFormat version                           : Version 2\r\nFile size                                : 3.49 GiB\r\nDuration                                 : 2h 49mn\r\nOverall bit rate                         : 2 949 Kbps\r\nEncoded date                             : UTC 2016-07-15 00:12:43\r\nWriting application                      : mkvmerge v8.5.2 ('Crosses') 32bit\r\nWriting library                          : libebml v1.3.3 + libmatroska v1.4.4\r\nDURATION                                 : 02:49:21.472000000\r\nNUMBER_OF_FRAMES                         : 317546\r\nNUMBER_OF_BYTES                          : 569042432\r\n_STATISTICS_WRITING_APP                  : mkvmerge v8.5.2 ('Crosses') 32bit\r\n_STATISTICS_WRITING_DATE_UTC             : 2016-07-15 00:12:43\r\n_STATISTICS_TAGS                         : BPS DURATION NUMBER_OF_FRAMES NUMBER_OF_BYTES\r\n\r\nVideo\r\nID                                       : 1\r\nFormat                                   : AVC\r\nFormat/Info                              : Advanced Video Codec\r\nFormat profile                           :   \r\nFormat settings, CABAC                   : Yes\r\nFormat settings, ReFrames                : 4 frames\r\nCodec ID                                 : V_MPEG4/ISO/AVC\r\nDuration                                 : 2h 49mn\r\nBit rate                                 : 2 499 Kbps\r\nWidth                                    : 1 280 pixels\r\nHeight                                   : 544 pixels\r\nDisplay aspect ratio                     : 2.35:1\r\nFrame rate mode                          : Constant\r\nFrame rate                               : 23.976 fps\r\nColor space                              : YUV\r\nChroma subsampling                       : 4:2:0\r\nBit depth                                : 8 bits\r\nScan type                                : Progressive\r\nBits/(Pixel*Frame)                       : 0.150\r\nStream size                              : 2.89 GiB (83%)\r\nWriting library                          : x264 core 148 r2638 7599210\r\nDefault                                  : Yes\r\nForced                                   : No\r\n\r\nAudio\r\nID                                       : 2\r\nFormat                                   : AC-3\r\nFormat/Info                              : Audio Coding 3\r\nMode extension                           : CM (complete main)\r\nFormat settings, Endianness              : Big\r\nCodec ID                                 : A_AC3\r\nDuration                                 : 2h 49mn\r\nBit rate mode                            : Constant\r\nBit rate                                 : 448 Kbps\r\nChannel(s)                               : 6 channels\r\nChannel positions                        : Front: L C R, Side: L R, LFE\r\nSampling rate                            : 48.0 KHz\r\nCompression mode                         : Lossy\r\nStream size                              : 543 MiB (15%)\r\nDefault                                  : Yes\r\nForced                                   : No","torrent":{"xt":"urn:btih:74c51979b9e702e97ea3b93833db835eb2e4a033","amp;dn":"Sultan+%7B2016%7D+720p+DVDScr+x264+AC3+5.1+%7BTeam+DUS%7D+-+jnmjy","amp;tr":["udp%3A%2F%2Ftracker.leechers-paradise.org%3A6969","udp%3A%2F%2Fzer0day.ch%3A1337","udp%3A%2F%2Fopen.demonii.com%3A1337","udp%3A%2F%2Ftracker.coppersurfer.tk%3A6969","udp%3A%2F%2Fexodus.desync.com%3A6969"],"infoHash":"74c51979b9e702e97ea3b93833db835eb2e4a033","infoHashBuffer":{"type":"Buffer","data":[116,197,25,121,185,231,2,233,126,163,185,56,51,219,131,94,178,228,160,51]},"announce":[],"urlList":[]}}